<svg xmlns="http://www.w3.org/2000/svg"><symbol id="icon_arrow-next" viewBox="0 0 10 12"><path d="M9.5 5.134a1 1 0 010 1.732L2 11.196a1 1 0 01-1.5-.866V1.67A1 1 0 012 .804l7.5 4.33z"/></symbol><symbol id="icon_arrow-prev" viewBox="0 0 10 12"><path d="M.5 5.134a1 1 0 000 1.732l7.5 4.33a1 1 0 001.5-.866V1.67A1 1 0 008 .804L.5 5.134z"/></symbol><symbol id="icon_facebook" viewBox="0 0 24 24"><path d="M12 0C5.373 0 0 5.373 0 12s5.373 12 12 12 12-5.373 12-12S18.627 0 12 0zm3 8h-1.35c-.538 0-.65.221-.65.778V10h2l-.209 2H13v7h-3v-7H8v-2h2V7.692C10 5.923 10.931 5 13.029 5H15v3z"/></symbol><symbol id="icon_phone" viewBox="0 0 16 24"><path d="M16 22.621l-3.521-6.795a618.8 618.8 0 01-2.064 1.011c-2.24 1.086-6.799-7.82-4.609-8.994l2.083-1.026L4.396 0 2.29 1.039c-7.202 3.755 4.233 25.982 11.6 22.615.121-.055 2.102-1.029 2.11-1.033z"/></symbol><symbol id="icon_vk" viewBox="0 0 24 24"><path d="M12 0C5.373 0 0 5.373 0 12s5.373 12 12 12 12-5.373 12-12S18.627 0 12 0zm6.344 16.163h-1.867c-1.055 0-1.232-.601-2.102-1.469-.785-.785-1.22-.183-1.202.935.006.297-.141.534-.495.534-1.105 0-2.694.156-4.304-1.58C6.727 12.804 5 9.235 5 8.884c0-.208.172-.301.459-.301h1.898c.503 0 .545.249.686.568.584 1.331 1.981 4.002 2.354 2.511.214-.856.301-2.839-.615-3.01-.52-.096.396-.652 1.722-.652.33 0 .688.035 1.054.12.673.156.676.458.666.898-.034 1.666-.235 2.786.204 3.069.419.271 1.521-1.502 2.104-2.871.159-.378.191-.632.643-.632h2.322c1.216 0-.159 1.748-1.21 3.112-.847 1.099-.802 1.12.183 2.034.701.651 1.53 1.54 1.53 2.043 0 .238-.186.39-.656.39z"/></symbol></svg>
